# File created by Blade
# Date/Time:  Tue Apr 07 21:33:03 2015
# Frame Rate: 120.000 fps
#------------------------------------------------------
:FULLY-SPECIFIED
:DEGREES
750
root 12.876547 36.971423 -6.140369 38.940970 -42.851032 -21.266983
Spine 3.731417 -19.143071 22.636602
Head -0.931173 -4.354681 7.053730
LeftShoulder -1.924546 19.683038 55.650103
LeftArm 98.494129 -69.794096 -81.219569
LeftForeArm -10.344929 -0.000000 36.925955
LeftHand 24.848129 -0.000000 39.372955
LeftHandThumb1 -26.253704 0.000000 33.147579
RightShoulder -3.150277 17.660403 -49.339743
RightArm 11.631838 31.531150 18.918015
RightForeArm -4.841118 0.000000 28.890754
RightHand 20.737182 -0.000000 -26.116429
RightHandThumb1 -24.326973 -0.000000 -32.862282
LeftUpLeg -17.514044 5.342839 9.251315
LeftLeg -6.462785 -0.000000 0.000000
LeftFoot 38.277725 16.677888 -27.503847
LeftToeBase -8.313399 -0.000000 0.000000
RightUpLeg -68.024984 -7.976933 9.918905
RightLeg 99.726809 -0.000000 -0.000000
RightFoot 45.407368 0.440858 14.657371
RightToeBase 18.328049 -0.000000 -0.000000
751
root 12.765401 37.658242 -5.820742 38.718645 -42.153168 -20.793259
Spine 4.217725 -19.443812 24.014985
Head -1.774750 -4.290707 5.962765
LeftShoulder -2.599958 20.741789 55.335215
LeftArm 102.088030 -70.729863 -83.923524
LeftForeArm -9.268977 0.000000 36.635223
LeftHand 24.691858 -0.000000 41.507854
LeftHandThumb1 -26.253704 0.000000 33.147579
RightShoulder -3.873061 16.441460 -49.971646
RightArm 10.812968 30.289840 17.131964
RightForeArm -5.088629 0.000000 26.078900
RightHand 19.747338 -0.000000 -25.396704
RightHandThumb1 -24.326973 -0.000000 -32.862282
LeftUpLeg -16.009996 12.280707 6.875275
LeftLeg -9.328517 -0.000000 0.000000
LeftFoot 36.486383 23.464757 -40.647275
LeftToeBase -3.861976 -0.000000 0.000000
RightUpLeg -69.390704 -9.950940 9.182488
RightLeg 92.192723 -0.000000 -0.000000
RightFoot 44.821452 -2.347668 14.566386
RightToeBase 18.106246 -0.000000 -0.000000
752
root 12.693255 38.333730 -5.515125 38.369337 -41.631580 -19.794385
Spine 4.551167 -19.794288 25.024354
Head -3.136849 -4.416910 4.859380
LeftShoulder -3.844633 21.848329 54.424435
LeftArm 106.368962 -71.301254 -87.072138
LeftForeArm -8.374239 -0.000000 36.396844
LeftHand 24.431441 -0.000000 43.057180
LeftHandThumb1 -26.253704 0.000000 33.147579
RightShoulder -4.865196 15.600024 -50.533519
RightArm 10.147218 29.856895 16.064593
RightForeArm -4.150776 0.000000 23.982694
RightHand 18.912605 -0.000000 -25.676690
RightHandThumb1 -24.326973 -0.000000 -32.862282
LeftUpLeg -16.073472 18.417611 4.435508
LeftLeg -8.221264 -0.000000 0.000000
LeftFoot 36.584799 19.374351 -38.738572
LeftToeBase -3.713661 -0.000000 0.000000
RightUpLeg -70.807957 -11.942188 8.065616
RightLeg 84.310294 -0.000000 -0.000000
RightFoot 44.476468 -6.009946 14.913766
RightToeBase 21.785862 -0.000000 -0.000000
753
root 12.588168 38.981122 -5.258279 38.447646 -41.042580 -19.242845
Spine 4.860395 -20.069959 26.273708
Head -5.147205 -4.582642 3.762293
LeftShoulder -5.621865 22.774540 52.969648
LeftArm 111.247587 -71.290355 -90.618688
LeftForeArm -7.966904 -0.000000 35.879923
LeftHand 23.874936 -0.000000 43.966182
LeftHandThumb1 -26.253704 0.000000 33.147579
RightShoulder -6.085346 15.396113 -51.099161
RightArm 9.451961 30.312377 15.779924
RightForeArm -2.716033 -0.000000 22.856885
RightHand 18.069623 0.000000 -25.267887
RightHandThumb1 -24.326973 -0.000000 -32.862282
LeftUpLeg -16.430263 21.608131 3.770640
LeftLeg -4.814404 -0.000000 0.000000
LeftFoot 41.141938 14.780930 -31.995416
LeftToeBase -12.070412 -0.000000 0.000000
RightUpLeg -72.021995 -13.440281 7.287130
RightLeg 76.180049 -0.000000 -0.000000
RightFoot 44.235426 -8.370059 13.497212
RightToeBase 19.818933 -0.000000 -0.000000
754
root 12.459165 39.587604 -5.029937 38.817356 -40.514893 -19.012941
Spine 5.110743 -20.216861 27.625373
Head -7.500544 -4.854979 2.603894
LeftShoulder -7.515658 23.248899 51.285886
LeftArm 116.125270 -70.678081 -94.353734
LeftForeArm -7.846447 -0.000000 35.073341
LeftHand 23.214914 -0.000000 44.248940
LeftHandThumb1 -26.253704 0.000000 33.147579
RightShoulder -7.351747 15.815203 -51.738936
RightArm 8.642794 31.560624 16.134076
RightForeArm -1.345087 -0.000000 22.500393
RightHand 16.780030 0.000000 -24.941453
RightHandThumb1 -24.326973 -0.000000 -32.862282
LeftUpLeg -16.350696 22.254525 4.580865
LeftLeg -0.716634 -0.000000 0.000000
LeftFoot 42.386467 14.982978 -29.415854
LeftToeBase 3.764055 -0.000000 -0.000000
RightUpLeg -72.883067 -14.308240 6.256900
RightLeg 67.807749 -0.000000 -0.000000
RightFoot 44.273986 -9.579071 11.889718
RightToeBase 19.987996 -0.000000 -0.000000
